<?xml version="1.0" standalone="no"?>
<!DOCTYPE svg PUBLIC "-//W3C//DTD SVG 20010904//EN"
 "http://www.w3.org/TR/2001/REC-SVG-20010904/DTD/svg10.dtd">
<svg version="1.0" xmlns="http://www.w3.org/2000/svg"
 width="498.000000pt" height="526.000000pt" viewBox="0 0 498.000000 526.000000"
 preserveAspectRatio="xMidYMid meet">
<metadata>
Created by potrace 1.16, written by Peter Selinger 2001-2019
</metadata>
<g transform="translate(0.000000,526.000000) scale(0.100000,-0.100000)"
fill="#000000" stroke="none">
<path d="M2475 5071 c-16 -5 -185 -105 -375 -223 -190 -118 -655 -407 -1035
-642 -379 -235 -702 -440 -717 -456 -38 -41 -53 -95 -39 -147 6 -23 52 -97
106 -173 l95 -131 0 -182 c0 -100 5 -199 11 -220 6 -24 28 -55 55 -81 44 -42
44 -43 44 -112 0 -78 18 -117 69 -155 l31 -23 0 -763 0 -763 -126 0 c-192 0
-227 -26 -268 -194 -13 -53 -26 -99 -29 -102 -2 -3 -27 -7 -53 -10 -61 -6
-118 -42 -143 -92 -28 -56 -75 -265 -67 -304 10 -53 41 -94 88 -117 l44 -21
2306 0 2305 0 44 23 c47 25 89 89 89 137 0 55 -61 274 -85 306 -31 41 -106 78
-146 72 -36 -6 -40 1 -63 102 -24 104 -34 127 -69 156 -48 41 -74 46 -204 45
l-123 -2 0 764 0 763 31 23 c52 39 69 77 69 158 0 70 1 73 34 98 67 51 76 86
76 304 l0 193 97 136 c94 131 97 137 101 196 7 110 160 0 -1623 1161 -437 284
-457 294 -530 276z m635 -494 c316 -206 733 -478 925 -603 436 -283 475 -311
475 -332 -1 -19 -171 -256 -183 -255 -8 1 -828 526 -1508 965 -152 98 -285
178 -296 178 -19 0 -118 -59 -1292 -772 -343 -208 -625 -377 -627 -375 -26 25
-174 246 -174 259 0 9 12 25 28 36 23 17 771 483 1432 892 113 70 300 186 415
258 116 72 215 130 220 128 6 -2 269 -173 585 -379z m210 -699 l797 -513 -824
-3 c-454 -1 -1193 -1 -1644 0 l-819 3 102 62 c57 34 436 265 843 512 407 248
742 451 744 451 3 0 363 -231 801 -512z m978 -810 l-3 -163 -755 -3 c-746 -2
-756 -2 -845 20 -70 16 -120 21 -225 21 -105 0 -155 -5 -225 -21 -89 -22 -99
-22 -845 -20 l-755 3 -3 163 -2 162 1830 0 1830 0 -2 -162z m-1593 -276 c324
-90 558 -324 647 -647 18 -66 21 -106 21 -235 0 -138 -3 -164 -26 -241 -52
-172 -119 -288 -229 -397 -84 -83 -145 -126 -254 -178 -130 -63 -240 -87 -394
-87 -150 -1 -259 23 -387 83 -255 119 -420 320 -499 610 -27 99 -25 337 4 445
89 327 340 574 657 648 39 9 79 18 90 21 50 12 302 -3 370 -22z m-862 -61
c-26 -22 -61 -51 -78 -65 l-30 -25 -485 -1 c-365 0 -489 3 -498 12 -7 7 -12
36 -12 65 l0 53 576 0 576 0 -49 -39z m2357 -14 c0 -29 -5 -58 -12 -65 -9 -9
-133 -12 -498 -12 l-485 1 -30 25 c-16 14 -52 43 -78 65 l-49 39 576 0 576 0
0 -53z m-2609 -264 c-103 -167 -153 -336 -154 -523 0 -69 5 -154 12 -190 52
-279 218 -530 452 -686 38 -25 69 -47 69 -50 0 -2 -137 -4 -305 -4 l-305 0 0
755 0 754 128 3 c70 2 128 0 130 -4 2 -3 -10 -28 -27 -55z m-361 -698 l0 -755
-192 2 -193 3 -3 753 -2 752 195 0 195 0 0 -755z m2350 0 l0 -755 -305 0
c-168 0 -305 2 -305 4 0 3 32 26 72 52 311 207 501 603 459 958 -19 162 -82
338 -165 459 l-25 37 134 0 135 0 0 -755z m518 3 l-3 -753 -192 -3 -193 -2 0
755 0 755 195 0 195 0 -2 -752z m367 -890 c6 -6 44 -143 45 -160 0 -5 -918 -8
-2040 -8 -1122 0 -2040 3 -2040 8 0 14 37 150 44 160 7 11 3980 12 3991 0z
m292 -428 c23 -91 29 -128 21 -137 -8 -11 -438 -13 -2309 -13 -2110 0 -2299 1
-2307 16 -6 11 1 55 20 132 16 64 32 120 34 124 3 4 1019 7 2257 6 l2252 -3
32 -125z"/>
<path d="M2413 2610 c-28 -11 -53 -60 -53 -103 0 -31 -4 -35 -54 -56 -78 -32
-139 -90 -178 -168 -28 -57 -33 -77 -33 -142 0 -144 61 -225 213 -277 l52 -19
0 -132 c0 -73 -1 -133 -2 -133 -2 0 -32 9 -66 20 -93 29 -137 27 -173 -9 -37
-37 -41 -103 -8 -145 29 -37 104 -73 183 -87 58 -11 66 -15 66 -35 0 -54 47
-104 99 -104 34 0 80 48 87 90 6 36 9 39 53 50 96 24 192 106 234 198 24 56
34 179 18 238 -26 95 -100 166 -224 215 l-72 27 -3 105 -3 105 47 -14 c26 -8
65 -14 86 -14 80 0 122 84 83 160 -18 34 -85 71 -162 90 -45 10 -53 16 -53 35
0 83 -66 134 -137 105z m-23 -470 c0 -114 -5 -125 -40 -97 -56 44 -67 125 -24
176 14 17 34 31 45 31 18 0 19 -8 19 -110z"/>
</g>
</svg>
